<svg width="995" height="1335" viewBox="0 0 995 1335" fill="none" xmlns="http://www.w3.org/2000/svg">
<g clip-path="url(#clip0_100_310)">
<path d="M0.599609 1138.93L191.1 58.2256L659.6 140.826C741.9 155.326 809.1 178.626 861.1 210.626C913.5 242.726 950.3 281.526 971.7 326.926C993.4 372.426 999.4 422.626 989.8 477.526C982.8 517.226 967.6 551.926 944.3 581.526C921.3 611.226 892.2 634.326 857 651.026C821.8 667.326 782.6 676.026 739.2 677.026L737.3 687.626C783.4 697.526 823.6 716.826 857.7 745.326C891.9 773.526 916.9 808.526 932.7 850.526C948.6 892.126 952 938.426 943 989.426C932.6 1048.53 907.8 1098.43 868.7 1139.03C830 1179.73 780 1208.23 718.7 1224.63C657.4 1241.03 587.5 1242.33 509.1 1228.43L0.599609 1138.93ZM335.3 956.326L472.5 980.526C521.7 989.226 560.3 986.526 588.1 972.626C616 958.326 633.2 933.026 639.5 896.826C644 871.526 641.9 849.026 633.4 829.426C624.9 809.826 610.7 793.526 590.9 780.626C571.4 767.726 546.7 758.726 516.8 753.426L375.4 728.526L335.3 956.326ZM407.4 546.926L527.7 568.126C553.4 572.626 576.8 572.626 597.9 568.026C619 563.426 636.4 554.526 649.9 541.326C663.9 527.826 672.8 510.026 676.7 487.826C682.6 454.426 675.1 426.826 654.3 405.026C633.5 382.826 604.9 368.526 568.3 362.126L443.8 340.126L407.4 546.926Z" fill="#F2EDE6"/>
<path d="M650.8 49.2256L594.5 368.426C618.9 376.226 638.9 388.426 654.4 405.026C675.2 426.826 682.7 454.426 676.8 487.826C672.9 510.026 663.9 527.826 650 541.326C636.4 554.526 619.1 563.426 598 568.026C585.7 570.726 572.6 571.826 558.8 571.426L526.4 755.226C552.1 760.626 573.6 769.126 591 780.626C610.8 793.526 625 809.826 633.5 829.426C642 849.026 644 871.526 639.6 896.826C633.2 933.026 616.1 958.326 588.2 972.626C563 985.226 529 988.626 486.3 982.726L429.5 1304.63L590.6 1333.03L811.9 77.6256L650.8 49.2256Z" fill="#F2EDE6"/>
<path d="M407.4 546.926L443.9 340.026L478.5 346.126L534.5 28.6256L373.3 0.225586L152 1255.73L313.1 1284.13L369.8 962.426L335.3 956.326L375.4 728.426L410 734.526L442 553.026L407.4 546.926Z" fill="#F2EDE6"/>
</g>
<defs>
<clipPath id="clip0_100_310">
<rect width="995" height="1334" fill="white" transform="translate(0 0.0253906)"/>
</clipPath>
</defs>
</svg>
