<?xml version="1.0" standalone="no"?>
<!DOCTYPE svg PUBLIC "-//W3C//DTD SVG 20010904//EN"
 "http://www.w3.org/TR/2001/REC-SVG-20010904/DTD/svg10.dtd">
<svg version="1.0" xmlns="http://www.w3.org/2000/svg"
 width="1094.000000pt" height="1094.000000pt" viewBox="0 0 1094.000000 1094.000000"
 preserveAspectRatio="xMidYMid meet">
<metadata>
Created by potrace 1.14, written by Peter Selinger 2001-2017
</metadata>
<g transform="translate(0.000000,1094.000000) scale(0.100000,-0.100000)"
fill="#000000" stroke="none">
<path d="M0 5470 l0 -5470 5470 0 5470 0 0 5470 0 5470 -5470 0 -5470 0 0
-5470z m5135 4569 c143 -6 265 -16 270 -21 6 -5 9 -42 8 -83 -2 -125 -65 -230
-175 -291 -49 -27 -61 -29 -158 -29 -97 0 -109 2 -158 29 -135 75 -200 222
-168 380 l7 38 57 -5 c31 -4 174 -11 317 -18z m625 -41 c0 -35 -44 -258 -51
-258 -19 0 -42 114 -36 182 3 37 9 73 12 78 9 14 75 13 75 -2z m1192 -129
l308 -54 0 -31 c0 -46 -56 -149 -102 -188 -73 -63 -122 -80 -223 -81 -77 0
-98 4 -146 26 -134 63 -206 198 -185 344 6 37 11 46 24 43 9 -3 155 -29 324
-59z m-3519 -25 c48 -9 87 -20 87 -24 0 -14 -63 -62 -105 -81 -23 -10 -60 -21
-83 -25 -48 -8 -47 -10 -31 83 13 73 6 70 132 47z m326 -65 c168 -38 325 -200
346 -357 11 -81 18 -92 27 -43 18 102 102 231 184 282 32 19 38 20 109 8 41
-7 77 -10 81 -6 3 3 9 21 13 39 l7 33 90 0 c82 0 96 -3 159 -34 79 -39 165
-115 202 -179 31 -52 63 -152 63 -195 0 -24 3 -28 10 -17 5 8 10 25 10 36 0
42 72 165 127 220 93 91 236 143 355 129 61 -8 158 -33 158 -42 0 -3 -7 -48
-16 -100 -13 -75 -14 -97 -4 -103 7 -4 47 -13 89 -20 159 -25 169 -28 180 -63
5 -18 13 -52 17 -77 l7 -45 13 53 c26 98 1 94 271 46 131 -23 239 -41 241 -39
2 2 16 73 31 159 16 86 31 159 34 162 10 10 110 -41 163 -83 85 -68 164 -214
164 -303 0 -18 4 -29 10 -25 6 3 10 17 10 29 0 13 17 57 37 97 131 263 458
339 693 162 33 -24 63 -55 66 -68 5 -19 -37 -289 -62 -403 -4 -20 4 -26 66
-54 l70 -31 -23 -40 c-12 -22 -46 -65 -75 -95 -49 -50 -51 -54 -25 -48 100 21
187 16 303 -20 22 -6 20 -2 -17 38 -43 47 -78 106 -69 115 8 8 188 -91 309
-169 59 -39 105 -73 102 -76 -10 -10 -127 -1 -167 14 -22 8 -42 14 -44 14 -2
0 16 -20 40 -45 56 -59 92 -127 115 -216 l18 -72 13 39 c24 74 105 184 137
184 21 0 275 -257 336 -340 93 -127 152 -230 140 -249 -5 -9 -40 -32 -78 -51
-64 -33 -73 -35 -169 -35 -88 0 -108 3 -156 26 -83 39 -144 99 -185 181 -19
39 -35 81 -35 94 0 38 -16 28 -29 -18 -22 -75 -63 -138 -130 -200 -48 -45 -59
-60 -41 -54 173 49 353 4 469 -119 216 -228 148 -589 -137 -727 -59 -28 -79
-33 -167 -36 -98 -4 -130 2 -230 43 -11 5 5 -19 36 -51 66 -70 111 -154 129
-239 l13 -60 18 52 c109 320 552 349 701 45 31 -63 33 -73 33 -172 -1 -86 -5
-114 -23 -153 -33 -72 -121 -159 -195 -193 -54 -25 -74 -29 -157 -29 -82 0
-103 4 -152 27 -106 49 -182 139 -217 256 l-18 57 -16 -55 c-22 -74 -82 -165
-142 -216 l-49 -42 73 16 c227 49 465 -97 526 -323 l18 -66 -29 -30 c-41 -43
-136 -118 -225 -177 -176 -117 -436 -222 -654 -266 -108 -22 -375 -51 -375
-41 0 3 15 19 33 36 23 22 26 29 12 24 -11 -4 -60 -9 -110 -12 -85 -4 -145 5
-210 33 -13 5 -4 -10 24 -42 52 -58 96 -146 112 -223 l11 -56 17 55 c10 30 25
70 35 87 13 27 20 31 34 23 9 -6 73 -26 142 -45 145 -42 308 -109 429 -178 99
-57 241 -156 241 -169 0 -16 -42 -92 -75 -138 -18 -25 -54 -60 -79 -79 -25
-19 -45 -36 -43 -37 1 -1 27 4 57 12 311 81 612 -189 563 -506 -29 -183 -160
-328 -338 -375 -95 -24 -147 -21 -292 21 -16 4 -11 -5 23 -41 54 -59 100 -148
115 -226 l12 -60 23 56 c55 137 148 216 287 245 159 32 341 -58 413 -206 26
-54 27 -59 21 -180 -5 -99 -10 -135 -27 -170 -53 -108 -178 -190 -308 -201
-171 -14 -341 98 -388 257 -9 30 -19 62 -21 70 -3 9 -13 -6 -23 -35 -31 -89
-62 -139 -124 -200 l-62 -61 69 15 c195 42 403 -62 494 -247 38 -75 38 -77 38
-197 0 -119 -1 -122 -37 -196 -102 -206 -327 -306 -540 -239 -34 11 -65 20
-66 20 -2 0 17 -24 44 -52 55 -62 101 -154 110 -221 6 -46 24 -76 24 -40 0 32
46 117 89 165 51 57 150 109 222 116 50 5 51 4 39 -17 -21 -41 -235 -245 -330
-317 -141 -107 -209 -148 -375 -230 -245 -120 -553 -212 -820 -244 -49 -6
-107 -13 -127 -15 -50 -7 -43 12 24 65 28 22 48 40 45 40 -3 0 -34 -7 -69 -16
-75 -19 -170 -14 -256 15 -58 20 -79 21 -44 2 19 -10 92 -101 92 -115 0 -3
-25 -6 -55 -6 -48 0 -55 -3 -60 -22 -3 -13 -28 -153 -56 -313 -27 -159 -52
-298 -55 -307 -9 -32 -50 -31 -250 5 l-197 36 -49 48 c-57 56 -111 158 -128
240 l-12 58 -23 -66 c-24 -72 -65 -136 -117 -186 l-33 -31 -172 30 c-155 28
-173 33 -173 51 0 11 23 150 51 310 37 212 48 292 39 297 -6 4 -72 17 -146 30
-74 13 -134 27 -134 33 0 5 -8 6 -17 3 -10 -4 -112 10 -228 30 l-210 37 -53
54 c-62 63 -110 156 -119 232 -7 59 -14 56 -32 -9 -20 -69 -58 -129 -128 -196
l-63 -62 47 14 c25 8 79 14 120 14 81 0 172 -18 152 -30 -6 -5 -35 -140 -66
-316 -30 -170 -55 -309 -56 -310 -1 -1 -108 17 -237 40 l-235 41 -11 55 -11
55 -7 -43 c-5 -24 -15 -46 -23 -49 -8 -3 -151 18 -319 48 l-304 53 0 25 c1 38
77 461 84 468 4 4 46 9 94 11 73 3 99 0 159 -20 l71 -24 -45 50 c-56 63 -98
144 -114 225 l-13 62 -26 -71 c-23 -65 -95 -180 -113 -180 -4 0 -6 19 -5 42
l3 42 -370 66 c-203 36 -378 69 -387 73 -13 5 -18 18 -18 47 0 46 -15 46 -25
0 -4 -16 -10 -32 -14 -35 -5 -2 -90 10 -190 27 -146 25 -181 34 -181 47 1 9
15 97 33 196 l32 180 54 -3 c109 -6 220 -89 260 -195 11 -32 21 -70 22 -85 0
-18 5 -10 13 25 43 176 185 317 357 354 64 14 188 6 247 -15 23 -8 42 -12 42
-8 0 4 -16 23 -36 42 -45 45 -91 138 -107 217 l-13 62 -18 -52 c-38 -106 -126
-199 -225 -239 -44 -18 -76 -22 -147 -22 -86 0 -97 2 -167 37 -86 42 -142 99
-182 183 -30 64 -31 97 -4 244 24 131 33 154 86 201 169 153 403 144 556 -21
53 -57 97 -143 97 -190 0 -10 5 -22 10 -25 6 -3 10 4 10 18 0 44 70 166 127
224 l55 54 -39 -8 c-75 -16 -214 -8 -275 16 -85 33 -168 99 -216 171 -45 66
-82 169 -83 229 l0 36 -13 -40 c-20 -63 -51 -117 -88 -152 -35 -34 -141 -88
-146 -74 -2 7 79 484 94 550 5 24 6 23 50 -20 53 -51 81 -100 90 -158 8 -48
19 -46 29 6 9 51 56 140 101 192 124 143 343 191 529 115 14 -5 7 7 -20 38
-56 63 -92 133 -114 220 -11 40 -20 64 -20 52 -2 -44 -62 -143 -121 -197 -90
-84 -199 -117 -320 -98 -70 11 -149 46 -158 69 -3 8 21 164 52 346 43 242 63
335 75 344 26 22 184 11 245 -16 110 -50 187 -140 222 -261 l21 -74 7 39 c17
90 99 210 191 279 25 18 21 18 -39 0 -61 -19 -175 -19 -242 -1 -167 44 -306
198 -334 371 -24 144 33 309 140 408 137 128 322 162 495 91 13 -5 6 8 -22 42
-56 66 -92 141 -107 221 l-12 67 -22 -62 c-28 -75 -72 -135 -137 -185 -84 -63
-265 -104 -265 -59 0 22 127 742 131 747 2 1 28 -6 56 -17 104 -38 212 -171
229 -280 8 -48 20 -49 27 -1 10 61 59 144 121 207 44 44 53 57 35 52 -49 -15
-177 -18 -231 -6 -65 16 -152 59 -195 97 l-31 28 66 375 67 374 60 19 c46 14
81 17 150 14 80 -3 116 -12 190 -43 11 -4 -4 16 -32 45 -62 62 -108 149 -124
232 l-12 60 -23 -56 c-12 -31 -35 -75 -51 -97 -30 -44 -129 -125 -140 -114 -4
3 18 143 47 311 53 299 54 305 73 287 31 -28 64 -92 83 -160 l18 -63 11 43
c19 74 58 141 121 206 57 59 59 62 30 55 -50 -13 -243 -10 -257 4 -9 9 -8 31
4 100 9 48 44 243 77 433 33 190 62 351 65 358 2 6 13 12 23 12 19 0 113 -23
147 -36 13 -5 6 8 -22 42 -54 63 -103 168 -103 218 0 68 50 319 71 352 45 74
157 151 259 180 55 15 160 17 219 3z m3899 -35 c118 -20 110 -6 85 -154 -11
-72 -20 -100 -30 -100 -22 0 -98 56 -132 97 -33 40 -71 129 -71 164 0 17 5 20
23 16 12 -3 68 -13 125 -23z m-3548 -19 c193 -33 194 -33 150 -53 -45 -20
-161 -19 -220 3 -50 18 -120 63 -120 77 0 5 8 7 18 4 9 -3 87 -17 172 -31z
m4893 -2025 c37 -116 58 -246 64 -397 l6 -152 -38 -7 c-106 -19 -223 22 -296
104 -85 97 -95 258 -23 373 47 75 160 141 234 136 33 -2 36 -5 53 -57z m-774
-2894 c47 -47 82 -88 78 -92 -19 -19 -151 96 -186 163 -29 56 4 35 108 -71z
m336 -475 c54 -107 143 -366 130 -379 -12 -12 -70 25 -114 74 -64 69 -85 130
-79 227 4 66 20 127 33 127 2 0 16 -22 30 -49z m80 -1423 c-24 -80 -85 -229
-132 -323 -50 -99 -57 -107 -69 -91 -20 28 -37 124 -30 175 14 101 86 203 171
242 54 25 68 24 60 -3z m-3007 -2083 c24 -10 41 -19 39 -22 -7 -6 -201 30
-212 40 -16 16 126 1 173 -18z"/>
<path d="M4106 9238 c-11 -72 -63 -166 -128 -232 -42 -41 -52 -56 -36 -51 13
4 64 9 113 12 84 4 143 -5 210 -32 13 -6 5 8 -22 37 -57 62 -99 150 -116 239
l-14 74 -7 -47z"/>
<path d="M5032 9185 c-23 -88 -60 -154 -124 -222 -35 -37 -54 -63 -43 -58 11
4 65 10 120 13 81 3 111 0 158 -15 31 -11 57 -18 57 -15 0 3 -18 25 -41 49
-53 58 -96 152 -106 233 l-9 65 -12 -50z"/>
<path d="M5956 9128 c-13 -68 -66 -160 -128 -220 -35 -35 -52 -57 -40 -54 84
27 221 25 296 -4 15 -5 29 -10 32 -10 2 0 -14 24 -37 53 -50 62 -82 131 -98
210 -7 31 -14 57 -16 57 -1 0 -6 -15 -9 -32z"/>
<path d="M6881 9076 c-19 -77 -59 -146 -122 -211 l-59 -62 63 14 c69 15 167
10 232 -13 59 -20 60 -18 18 30 -52 59 -92 143 -107 225 l-12 66 -13 -49z"/>
<path d="M3494 8868 c54 -62 94 -141 111 -222 l12 -61 13 45 c20 74 59 141
119 203 l56 59 -40 -9 c-70 -14 -205 -7 -262 15 l-53 20 44 -50z"/>
<path d="M4439 8796 c51 -67 83 -140 96 -216 l8 -44 18 60 c23 74 85 172 133
210 43 35 46 48 9 32 -41 -17 -209 -13 -262 6 -24 9 -45 16 -47 16 -2 0 19
-29 45 -64z"/>
<path d="M5310 8812 c0 -3 18 -25 41 -49 49 -53 97 -151 105 -215 6 -44 24
-59 24 -20 0 39 63 147 122 208 33 35 58 64 55 64 -3 0 -18 -5 -34 -11 -45
-17 -194 -12 -258 9 -30 10 -55 17 -55 14z"/>
<path d="M6267 8728 c52 -58 100 -152 115 -226 l12 -56 16 50 c29 83 59 133
116 192 30 31 54 57 54 58 0 2 -15 -2 -32 -7 -75 -21 -214 -9 -303 27 -13 5
-5 -9 22 -38z"/>
<path d="M7205 8664 c55 -67 93 -146 102 -210 5 -42 23 -63 23 -28 0 40 72
164 127 219 32 32 49 55 38 50 -11 -4 -61 -10 -111 -13 -85 -4 -140 5 -213 35
-7 3 8 -21 34 -53z"/>
<path d="M3607 8460 c-4 -8 -16 -41 -27 -73 -23 -60 -76 -135 -129 -179 -17
-15 -31 -28 -31 -31 0 -2 28 2 63 9 69 15 168 9 231 -12 59 -21 62 -17 18 30
-52 56 -90 132 -107 210 -7 34 -15 54 -18 46z"/>
<path d="M4526 8399 c-11 -62 -66 -158 -122 -216 l-54 -55 43 9 c64 12 196 6
246 -11 24 -9 45 -16 47 -16 3 0 -14 23 -36 52 -55 69 -78 115 -99 201 -17 71
-18 71 -25 36z"/>
<path d="M5450 8340 c-20 -75 -59 -139 -119 -202 l-58 -59 41 8 c65 13 206 7
255 -11 24 -9 46 -16 48 -16 3 0 -14 21 -36 46 -52 59 -88 133 -105 215 l-13
64 -13 -45z"/>
<path d="M6366 8265 c-21 -67 -73 -148 -129 -199 -36 -33 -38 -37 -17 -32 91
24 220 16 315 -20 13 -5 5 9 -23 40 -50 54 -101 157 -109 216 -3 22 -9 42 -13
45 -3 2 -14 -20 -24 -50z"/>
<path d="M7300 8240 c-20 -76 -60 -141 -122 -203 -41 -42 -52 -57 -36 -52 13
4 64 9 113 12 72 4 103 1 153 -15 34 -11 62 -17 62 -13 0 3 -16 21 -34 39 -47
47 -83 117 -105 204 l-19 73 -12 -45z"/>
<path d="M3925 8031 c54 -69 93 -151 101 -213 6 -44 24 -59 24 -20 0 41 72
165 126 218 49 49 53 54 27 47 -50 -14 -234 -8 -280 9 l-42 15 44 -56z"/>
<path d="M4842 7991 c55 -61 94 -139 110 -218 l12 -57 16 50 c29 83 60 135
119 198 31 33 47 56 36 51 -11 -4 -58 -10 -105 -12 -79 -5 -148 6 -215 33 -12
5 -2 -12 27 -45z"/>
<path d="M5761 7953 c20 -22 48 -60 62 -84 27 -47 63 -147 55 -154 -2 -3 -170
25 -373 60 -203 36 -372 62 -376 58 -4 -5 -24 -108 -45 -230 -21 -123 -41
-223 -44 -223 -12 0 -59 113 -71 169 l-11 53 -23 -65 c-28 -80 -69 -140 -137
-202 -42 -38 -48 -47 -28 -41 73 20 131 26 188 20 34 -3 64 -10 67 -14 5 -8
-149 -897 -157 -905 -4 -5 -95 17 -133 31 -14 6 -7 -7 21 -39 53 -60 102 -158
110 -219 4 -27 9 -48 13 -48 3 0 14 25 24 56 19 60 75 154 92 154 24 1 771
-133 777 -139 4 -4 14 -36 22 -71 8 -36 14 -60 15 -53 1 7 10 36 21 65 l20 53
107 -4 c274 -9 491 66 648 223 92 92 141 175 177 301 18 66 22 104 22 220 0
138 -6 176 -49 279 -8 18 -5 19 59 12 37 -4 90 -15 117 -25 27 -11 49 -18 49
-17 0 1 -20 25 -45 52 -54 58 -103 153 -111 218 -4 25 -10 46 -14 46 -4 0 -12
-19 -19 -42 -16 -55 -71 -148 -88 -148 -7 0 -13 4 -13 10 0 17 -146 155 -206
195 -135 90 -289 149 -474 181 -52 9 -98 20 -102 23 -16 14 62 152 118 208 41
41 49 54 32 49 -13 -4 -59 -10 -103 -13 -75 -5 -141 5 -210 33 -14 5 -9 -4 16
-33z"/>
<path d="M6699 7890 c55 -70 79 -117 100 -201 l18 -70 12 43 c23 74 61 140
120 202 46 49 52 58 31 52 -85 -23 -223 -15 -304 19 -13 6 -5 -10 23 -45z"/>
<path d="M7620 7844 c48 -52 99 -155 107 -214 6 -42 23 -66 23 -32 0 42 73
165 134 225 34 34 52 57 42 54 -81 -31 -205 -31 -291 -1 -60 21 -61 18 -15
-32z"/>
<path d="M4027 7640 c-3 -8 -13 -39 -22 -67 -19 -61 -84 -153 -141 -201 -34
-29 -36 -33 -14 -27 109 27 228 23 307 -10 19 -8 37 -15 40 -15 3 0 -16 23
-40 51 -57 65 -94 138 -111 220 -8 35 -16 57 -19 49z"/>
<path d="M7715 7395 c-24 -75 -89 -171 -143 -210 -22 -16 -41 -33 -41 -36 -1
-3 23 0 52 8 77 21 206 12 284 -19 l63 -26 -53 53 c-64 64 -104 136 -127 224
l-16 66 -19 -60z"/>
<path d="M3360 7316 c0 -1 20 -24 45 -50 55 -60 101 -149 116 -228 l12 -60 17
53 c28 89 59 141 128 208 36 36 57 61 46 57 -85 -33 -222 -32 -311 2 -29 11
-53 19 -53 18z"/>
<path d="M4329 7215 c57 -60 107 -155 117 -222 6 -42 24 -61 24 -25 0 26 53
132 89 177 18 22 51 55 73 73 22 17 38 32 35 32 -3 0 -34 -7 -69 -16 -76 -20
-185 -13 -262 17 -28 10 -53 19 -55 19 -2 0 19 -25 48 -55z"/>
<path d="M7114 7066 c60 -74 86 -125 106 -211 l17 -70 13 45 c21 78 71 158
134 217 45 41 54 55 36 49 -14 -5 -68 -10 -121 -13 -90 -5 -144 3 -218 34 -7
3 8 -20 33 -51z"/>
<path d="M3516 6839 c-12 -63 -65 -156 -123 -214 l-56 -56 44 8 c69 12 199 7
249 -10 24 -9 46 -15 48 -13 2 2 -13 21 -32 42 -50 54 -84 121 -105 206 -17
72 -18 72 -25 37z"/>
<path d="M4435 6766 c-23 -74 -79 -161 -136 -210 -36 -32 -40 -38 -19 -32 87
24 233 15 315 -20 13 -5 6 8 -22 42 -54 64 -91 139 -107 217 l-13 62 -18 -59z"/>
<path d="M7210 6618 c-21 -72 -50 -120 -114 -187 -33 -35 -52 -60 -41 -56 40
17 212 18 262 1 66 -23 68 -21 31 27 -19 23 -42 55 -52 70 -23 37 -56 133 -56
164 0 37 -16 27 -30 -19z"/>
<path d="M3800 6473 c0 -3 15 -22 34 -43 52 -58 84 -120 104 -201 18 -72 19
-73 27 -39 14 67 57 142 118 207 l62 66 -35 -9 c-57 -15 -220 -9 -267 9 -24 9
-43 13 -43 10z"/>
<path d="M6634 6257 c47 -67 71 -123 91 -212 6 -28 7 -27 26 29 26 75 74 151
127 198 49 44 52 52 15 36 -42 -16 -210 -13 -262 6 -24 9 -45 16 -47 16 -2 0
21 -33 50 -73z"/>
<path d="M7533 6241 c52 -58 85 -120 105 -200 17 -65 32 -84 32 -41 0 43 72
160 133 216 44 41 55 55 37 49 -52 -17 -216 -17 -273 -1 -74 22 -74 21 -34
-23z"/>
<path d="M3936 6010 c-12 -60 -59 -143 -120 -208 -33 -36 -52 -62 -41 -57 11
4 61 10 111 13 85 4 139 -5 214 -35 8 -3 -5 16 -29 43 -51 57 -96 146 -111
221 -6 29 -13 53 -14 53 -2 0 -6 -14 -10 -30z"/>
<path d="M4855 5941 c-27 -81 -64 -141 -125 -200 -40 -39 -49 -52 -31 -46 76
24 208 21 285 -5 48 -16 50 -12 13 29 -53 58 -85 120 -106 201 l-18 73 -18
-52z"/>
<path d="M5781 5890 c-16 -62 -74 -153 -129 -202 -23 -21 -42 -39 -42 -41 0
-2 28 2 63 10 67 14 152 10 227 -13 25 -8 47 -14 49 -14 2 0 -12 19 -31 43
-18 23 -42 55 -52 70 -23 37 -56 133 -56 163 0 42 -16 33 -29 -16z"/>
<path d="M6706 5840 c-25 -77 -61 -134 -120 -192 l-51 -50 45 8 c67 13 199 8
249 -10 24 -9 45 -16 48 -16 2 0 -14 21 -35 48 -51 60 -81 120 -102 202 l-16
65 -18 -55z"/>
<path d="M7631 5790 c-16 -64 -75 -155 -132 -204 l-44 -38 45 8 c70 14 210 8
259 -10 24 -9 45 -16 47 -16 2 0 -17 26 -42 57 -54 66 -92 145 -101 209 -3 24
-9 44 -12 44 -4 0 -13 -22 -20 -50z"/>
<path d="M3326 5657 c55 -61 101 -153 110 -219 4 -27 10 -48 13 -48 4 0 13 22
20 49 15 61 59 131 119 194 l47 48 -40 -8 c-70 -14 -195 -7 -258 15 l-58 21
47 -52z"/>
<path d="M4257 5604 c52 -62 99 -160 108 -227 l8 -52 21 67 c25 76 84 167 133
207 40 32 42 44 6 30 -56 -22 -221 -12 -301 18 -9 4 2 -15 25 -43z"/>
<path d="M5185 5554 c49 -60 90 -142 100 -199 12 -70 16 -72 35 -13 23 73 51
119 120 192 30 33 46 55 35 51 -11 -5 -65 -11 -120 -13 -80 -3 -112 0 -156 15
l-56 19 42 -52z"/>
<path d="M6070 5552 c0 -3 18 -24 39 -47 50 -55 78 -109 100 -197 l18 -71 18
58 c23 73 80 160 136 209 24 22 35 35 24 31 -11 -4 -65 -10 -120 -12 -82 -4
-110 -2 -157 14 -32 11 -58 18 -58 15z"/>
<path d="M3430 5230 c-21 -80 -71 -159 -139 -222 -36 -34 -58 -58 -47 -54 95
34 234 33 325 -3 l54 -22 -51 56 c-61 66 -98 138 -116 226 l-13 64 -13 -45z"/>
<path d="M4355 5178 c-15 -66 -68 -153 -131 -214 l-64 -62 47 14 c74 22 196
18 276 -11 l69 -24 -52 55 c-55 59 -109 160 -117 224 -7 52 -19 59 -28 18z"/>
<path d="M5277 5118 c-26 -81 -74 -158 -98 -158 -11 0 -136 20 -277 45 -141
25 -259 42 -263 38 -4 -5 -47 -235 -96 -512 -101 -577 -78 -521 -213 -521 -48
0 -101 7 -138 19 l-60 18 46 -56 c47 -58 85 -132 96 -191 15 -74 17 -74 40 -7
24 70 59 127 107 173 l31 29 -6 -25 c-3 -14 -26 -139 -51 -279 -24 -139 -47
-256 -50 -259 -8 -8 -36 67 -49 133 -13 59 -13 59 -19 25 -13 -65 -66 -161
-124 -222 -32 -34 -49 -58 -38 -54 11 5 58 10 105 13 79 4 141 -6 204 -32 12
-5 2 14 -28 51 -25 32 -42 60 -36 62 9 3 625 -103 663 -114 15 -5 16 -8 5 -21
-11 -14 -9 -15 22 -7 52 13 89 10 260 -22 147 -27 168 -28 410 -27 140 1 300
5 355 8 84 6 109 4 158 -12 31 -11 57 -18 57 -15 0 2 -15 22 -34 42 -61 68
-62 75 -14 108 55 38 139 126 178 188 61 96 104 241 126 427 l5 47 53 0 c47 0
130 -17 181 -36 13 -5 6 8 -23 41 -51 59 -100 156 -108 219 -4 25 -10 46 -13
46 -4 0 -13 -21 -20 -47 -15 -51 -58 -133 -70 -133 -4 0 -13 33 -19 73 -30
176 -139 346 -301 469 -86 65 -263 151 -376 183 -49 14 -173 41 -275 60 -139
25 -188 38 -198 52 -30 39 -56 101 -72 166 l-16 68 -17 -53z"/>
<path d="M6210 5091 c0 -42 -74 -167 -134 -225 -38 -37 -53 -56 -39 -52 88 28
231 24 309 -9 20 -8 39 -15 41 -15 3 0 -16 23 -41 51 -54 60 -104 158 -112
223 -7 45 -24 65 -24 27z"/>
<path d="M7131 5029 c-23 -80 -73 -158 -135 -216 -34 -31 -53 -54 -44 -50 44
16 148 28 197 22 50 -6 109 -22 156 -41 12 -4 -1 16 -31 49 -60 65 -92 126
-114 216 l-16 64 -13 -44z"/>
<path d="M3742 4830 c59 -63 105 -154 114 -222 4 -27 10 -48 13 -48 4 0 13 22
20 50 17 67 76 155 141 212 l54 47 -49 -14 c-74 -23 -197 -19 -277 8 l-66 23
50 -56z"/>
<path d="M6519 4685 c58 -61 108 -160 118 -231 7 -53 12 -50 33 20 22 69 81
157 136 203 25 20 43 37 42 39 -2 1 -28 -4 -58 -13 -70 -19 -188 -11 -261 17
-30 11 -56 20 -58 20 -2 0 20 -25 48 -55z"/>
<path d="M7444 4640 c53 -57 100 -148 117 -229 l12 -56 12 41 c30 98 94 191
170 245 25 18 43 34 42 36 -2 2 -24 -4 -48 -13 -66 -25 -218 -23 -289 5 -30
11 -57 21 -59 21 -2 0 17 -23 43 -50z"/>
<path d="M3841 4372 c-27 -79 -68 -141 -130 -201 -27 -25 -38 -41 -26 -37 76
28 213 26 288 -3 49 -19 50 -12 8 35 -51 59 -88 133 -104 211 l-12 62 -24 -67z"/>
<path d="M7555 4208 c-14 -64 -58 -141 -119 -206 -33 -36 -52 -62 -41 -58 11
5 61 10 110 13 77 5 100 2 162 -19 l71 -24 -45 50 c-55 62 -97 142 -113 219
-6 31 -13 57 -15 57 -2 0 -7 -15 -10 -32z"/>
<path d="M3239 4054 c52 -56 107 -168 116 -237 l8 -52 21 66 c26 81 81 166
136 210 22 18 39 34 37 35 -2 2 -19 -1 -38 -7 -59 -17 -198 -12 -263 11 l-58
20 41 -46z"/>
<path d="M6953 3846 c59 -72 74 -101 97 -189 13 -53 20 -67 25 -52 39 115 76
175 142 236 43 40 44 41 17 35 -99 -23 -217 -16 -308 20 -12 5 -2 -13 27 -50z"/>
<path d="M3336 3595 c-21 -68 -74 -148 -129 -198 l-42 -38 40 8 c65 13 215 7
264 -11 24 -9 46 -16 49 -16 2 0 -14 21 -38 46 -48 52 -99 155 -107 214 -3 22
-9 42 -13 45 -3 2 -14 -20 -24 -50z"/>
<path d="M7057 3454 c-4 -4 -7 -15 -7 -24 0 -38 -72 -160 -128 -215 -31 -32
-48 -54 -37 -50 11 5 65 11 120 13 81 3 112 0 158 -16 31 -10 57 -17 57 -14 0
3 -18 24 -39 47 -51 55 -90 132 -105 207 -6 32 -15 56 -19 52z"/>
<path d="M3669 3220 c57 -72 81 -121 101 -205 l17 -70 13 45 c20 74 59 140
119 204 46 48 51 58 31 52 -81 -24 -223 -15 -304 19 -13 6 -5 -10 23 -45z"/>
<path d="M4589 3175 c49 -54 95 -146 112 -224 l12 -56 12 45 c20 74 64 150
121 207 l54 54 -38 -8 c-61 -13 -213 -7 -261 11 -24 9 -46 16 -49 16 -2 0 14
-20 37 -45z"/>
<path d="M5511 3133 c55 -60 87 -122 107 -202 17 -64 32 -84 32 -42 0 37 63
146 117 202 l57 60 -45 -8 c-86 -16 -208 -5 -287 24 -9 4 -1 -12 19 -34z"/>
<path d="M6458 3057 c50 -66 83 -138 97 -212 l7 -40 25 70 c27 75 85 161 133
197 38 27 39 41 3 27 -55 -22 -221 -12 -299 18 -8 3 7 -24 34 -60z"/>
<path d="M7330 3072 c0 -3 18 -25 41 -49 47 -51 96 -148 105 -210 6 -42 24
-61 24 -24 0 43 71 160 133 217 45 42 55 55 37 50 -14 -5 -70 -10 -125 -13
-82 -4 -110 -1 -157 14 -32 11 -58 18 -58 15z"/>
<path d="M3766 2797 c-12 -62 -56 -139 -118 -204 -35 -37 -54 -63 -43 -58 11
4 63 10 115 12 75 4 108 1 157 -15 l61 -19 -46 56 c-52 64 -90 144 -99 207 -7
55 -19 64 -27 21z"/>
<path d="M4687 2730 c-21 -72 -82 -165 -138 -213 -26 -23 -36 -36 -24 -33 97
27 215 26 288 -3 48 -19 51 -13 14 29 -47 51 -86 128 -107 210 l-17 65 -16
-55z"/>
<path d="M5627 2724 c-4 -4 -7 -14 -7 -22 0 -36 -68 -152 -122 -208 l-59 -62
63 15 c70 16 163 11 231 -13 60 -21 63 -18 19 30 -52 56 -90 132 -106 208 -6
32 -15 56 -19 52z"/>
<path d="M6537 2626 c-22 -68 -74 -149 -130 -199 l-42 -39 45 9 c69 12 200 7
249 -11 24 -9 45 -16 48 -16 2 0 -19 29 -46 64 -46 60 -90 154 -92 194 0 9 -4
25 -8 35 -5 14 -11 5 -24 -37z"/>
<path d="M7465 2586 c-23 -73 -78 -159 -135 -210 -42 -38 -42 -39 -14 -32 16
4 61 9 99 13 67 5 88 2 215 -33 22 -6 19 -1 -22 43 -57 62 -96 137 -112 217
l-13 61 -18 -59z"/>
<path d="M3151 2453 c64 -67 101 -143 124 -248 6 -28 7 -27 26 29 26 75 74
151 128 199 l43 38 -49 -8 c-70 -12 -192 -6 -242 12 -64 22 -69 19 -30 -22z"/>
<path d="M4089 2394 c52 -59 88 -133 104 -213 l13 -64 22 67 c28 84 61 136
126 199 28 28 42 47 31 43 -69 -26 -219 -24 -288 3 -49 19 -50 12 -8 -35z"/>
<path d="M5011 2351 c50 -55 94 -144 110 -220 l12 -56 19 58 c25 76 58 129
121 194 l51 53 -34 -10 c-58 -17 -192 -12 -259 9 l-61 19 41 -47z"/>
<path d="M5939 2301 c52 -62 88 -133 103 -203 11 -55 28 -78 28 -40 0 42 71
165 128 220 31 31 48 52 37 48 -11 -5 -63 -10 -115 -13 -76 -4 -107 -1 -158
15 l-62 20 39 -47z"/>
<path d="M6830 2291 c0 -4 15 -22 34 -40 43 -42 93 -141 108 -217 l11 -57 17
49 c28 85 52 126 114 193 34 35 52 61 41 57 -11 -5 -60 -10 -110 -13 -72 -4
-103 -1 -152 15 -35 11 -63 17 -63 13z"/>
<path d="M5107 1903 c-24 -76 -65 -138 -133 -203 -39 -37 -49 -51 -32 -45 12
4 66 9 119 12 91 5 135 -2 226 -34 10 -3 -3 16 -28 43 -62 66 -95 126 -117
213 l-18 72 -17 -58z"/>
<path d="M6032 1853 c-26 -78 -81 -161 -141 -214 -25 -23 -38 -39 -28 -35 89
29 230 26 311 -8 56 -23 57 -21 8 32 -55 58 -100 146 -116 226 l-13 60 -21
-61z"/>
<path d="M6957 1802 c-25 -77 -68 -141 -135 -204 -32 -28 -49 -49 -40 -45 87
32 222 31 312 -4 28 -10 53 -19 54 -19 2 0 -18 24 -44 53 -53 59 -99 149 -113
220 -5 26 -10 50 -12 52 -2 1 -12 -22 -22 -53z"/>
<path d="M3568 1626 c55 -58 108 -156 118 -216 13 -86 15 -88 30 -33 22 86 63
154 130 219 l64 62 -48 -15 c-68 -21 -220 -13 -292 16 l-54 22 52 -55z"/>
<path d="M5423 1530 c57 -63 103 -153 118 -232 l12 -60 17 53 c28 89 59 141
128 208 36 36 57 61 46 57 -86 -33 -224 -31 -314 4 l-52 21 45 -51z"/>
</g>
</svg>
